<svg width="22" height="23" viewBox="0 0 22 23" fill="none" xmlns="http://www.w3.org/2000/svg">
<path d="M3.66634 18.8337C3.16217 18.8337 2.73073 18.6543 2.37201 18.2956C2.01329 17.9369 1.83362 17.5051 1.83301 17.0003V6.00033C1.83301 5.49616 2.01267 5.06471 2.37201 4.70599C2.73134 4.34727 3.16279 4.1676 3.66634 4.16699H18.333C18.8372 4.16699 19.2689 4.34666 19.6283 4.70599C19.9876 5.06533 20.167 5.49677 20.1663 6.00033V17.0003C20.1663 17.5045 19.987 17.9362 19.6283 18.2956C19.2695 18.6549 18.8378 18.8343 18.333 18.8337H3.66634ZM10.9997 12.2566C11.0761 12.2566 11.1564 12.245 11.2408 12.2217C11.3251 12.1985 11.4051 12.1643 11.4809 12.1191L17.9663 8.06283C18.0886 7.98644 18.1802 7.8911 18.2413 7.77683C18.3025 7.66255 18.333 7.53635 18.333 7.39824C18.333 7.09269 18.2031 6.86352 17.9434 6.71074C17.6837 6.55796 17.4163 6.5656 17.1413 6.73366L10.9997 10.5837L4.85801 6.73366C4.58301 6.5656 4.31565 6.56194 4.05592 6.72266C3.7962 6.88338 3.66634 7.10858 3.66634 7.39824C3.66634 7.55102 3.6969 7.68485 3.75801 7.79974C3.81912 7.91463 3.91079 8.00233 4.03301 8.06283L10.5184 12.1191C10.5948 12.1649 10.6752 12.1994 10.7595 12.2227C10.8438 12.2459 10.9239 12.2572 10.9997 12.2566Z" fill="#364F4C"/>
</svg>
