<svg width="22" height="23" viewBox="0 0 22 23" fill="none" xmlns="http://www.w3.org/2000/svg">
<path fill-rule="evenodd" clip-rule="evenodd" d="M15.1726 20.7888C13.8526 20.7403 10.1117 20.2233 6.19388 16.3063C2.27696 12.3885 1.76088 8.64851 1.71138 7.32759C1.63804 5.31459 3.17988 3.35934 4.96096 2.59576C5.17544 2.50314 5.41031 2.46788 5.64253 2.49344C5.87475 2.51899 6.09633 2.60448 6.28554 2.74151C7.75221 3.81034 8.76421 5.42734 9.63321 6.69876C9.82441 6.97809 9.90616 7.31801 9.86289 7.65374C9.81961 7.98947 9.65433 8.29754 9.39854 8.51926L7.61013 9.84751C7.52372 9.9099 7.4629 10.0015 7.43896 10.1054C7.41502 10.2092 7.42959 10.3183 7.47996 10.4122C7.88513 11.1483 8.60563 12.2446 9.43063 13.0696C10.2556 13.8946 11.4042 14.6628 12.1916 15.1138C12.2904 15.1692 12.4066 15.1847 12.5164 15.1571C12.6262 15.1294 12.7212 15.0608 12.782 14.9653L13.9461 13.1933C14.1602 12.909 14.4759 12.7186 14.8272 12.6618C15.1785 12.6051 15.5382 12.6865 15.8308 12.889C17.1205 13.7818 18.6257 14.7764 19.7275 16.1872C19.8757 16.3778 19.9699 16.6046 20.0004 16.8441C20.0309 17.0836 19.9965 17.3268 19.9008 17.5484C19.1335 19.3387 17.192 20.8631 15.1726 20.7888Z" fill="#364F4C"/>
</svg>
