<svg width="22" height="17" viewBox="0 0 22 17" fill="none" xmlns="http://www.w3.org/2000/svg">
<path d="M20.6316 3.57814C20.4137 3.55297 20.1931 3.59207 19.9971 3.69064L14.875 6.25001V10.75L19.9971 13.3094C20.1684 13.395 20.3587 13.4354 20.5501 13.4269C20.7414 13.4184 20.9273 13.3612 21.0904 13.2607C21.2534 13.1602 21.388 13.0198 21.4816 12.8527C21.5752 12.6856 21.6245 12.4974 21.625 12.3059V4.69414C21.6247 4.41878 21.5234 4.1531 21.3403 3.94742C21.1572 3.74175 20.9051 3.61036 20.6316 3.57814Z" fill="#1A1A1A"/>
<path d="M3.625 0.625C1.77437 0.625 0.25 2.14937 0.25 4V13C0.25 14.8506 1.77437 16.375 3.625 16.375H12.625C14.4756 16.375 16 14.8506 16 13V4C16 2.14937 14.4756 0.625 12.625 0.625H3.625Z" fill="#1A1A1A"/>
</svg>
