<svg width="63" height="63" viewBox="0 0 63 63" fill="none" xmlns="http://www.w3.org/2000/svg">
<path d="M55.6502 0.449951H7.3502C3.5552 0.449951 0.450195 3.55495 0.450195 7.34995V55.65C0.450195 59.4484 3.5552 62.55 7.3502 62.55H31.5002V38.4H24.6002V29.8612H31.5002V22.7887C31.5002 15.3229 35.6816 10.0789 44.4929 10.0789L50.7132 10.0858V19.0731H46.5836C43.1543 19.0731 41.8502 21.6468 41.8502 24.0342V29.8647H50.7098L48.7502 38.4H41.8502V62.55H55.6502C59.4452 62.55 62.5502 59.4484 62.5502 55.65V7.34995C62.5502 3.55495 59.4452 0.449951 55.6502 0.449951Z" fill="#1A1A1A"/>
</svg>
