<svg width="28" height="28" viewBox="0 0 28 28" fill="none" xmlns="http://www.w3.org/2000/svg">
<path d="M4.22149 0.75065L14.0002 10.5293L23.7282 0.801317C23.943 0.572601 24.2019 0.389637 24.4892 0.263395C24.7765 0.137153 25.0864 0.0702334 25.4002 0.0666504C26.072 0.0666504 26.7164 0.333554 27.1915 0.808647C27.6666 1.28374 27.9335 1.9281 27.9335 2.59998C27.9394 2.91058 27.8818 3.2191 27.7641 3.50662C27.6465 3.79414 27.4714 4.05459 27.2495 4.27198L17.3948 14L27.2495 23.8547C27.667 24.2631 27.9119 24.8163 27.9335 25.4C27.9335 26.0719 27.6666 26.7162 27.1915 27.1913C26.7164 27.6664 26.072 27.9333 25.4002 27.9333C25.0773 27.9467 24.7552 27.8928 24.4543 27.7751C24.1533 27.6573 23.8802 27.4783 23.6522 27.2493L14.0002 17.4707L4.24682 27.224C4.03277 27.4451 3.77705 27.6216 3.49442 27.7433C3.2118 27.8651 2.90786 27.9297 2.60015 27.9333C1.92827 27.9333 1.28391 27.6664 0.808815 27.1913C0.333722 26.7162 0.0668184 26.0719 0.0668184 25.4C0.060912 25.0894 0.118537 24.7809 0.236159 24.4934C0.35378 24.2058 0.528917 23.9454 0.750818 23.728L10.6055 14L0.750818 4.14532C0.333287 3.73684 0.0884521 3.18369 0.0668184 2.59998C0.0668184 1.9281 0.333722 1.28374 0.808815 0.808647C1.28391 0.333554 1.92827 0.0666504 2.60015 0.0666504C3.20815 0.0742504 3.79082 0.319984 4.22149 0.75065Z" fill="white"/>
</svg>
