<svg width="26" height="26" viewBox="0 0 26 26" fill="none" xmlns="http://www.w3.org/2000/svg">
<path d="M4.875 22.75C4.875 22.75 3.25 22.75 3.25 21.125C3.25 19.5 4.875 14.625 13 14.625C21.125 14.625 22.75 19.5 22.75 21.125C22.75 22.75 21.125 22.75 21.125 22.75H4.875ZM13 13C14.2929 13 15.5329 12.4864 16.4471 11.5721C17.3614 10.6579 17.875 9.41793 17.875 8.125C17.875 6.83207 17.3614 5.59209 16.4471 4.67785C15.5329 3.76361 14.2929 3.25 13 3.25C11.7071 3.25 10.4671 3.76361 9.55285 4.67785C8.63861 5.59209 8.125 6.83207 8.125 8.125C8.125 9.41793 8.63861 10.6579 9.55285 11.5721C10.4671 12.4864 11.7071 13 13 13Z" fill="white"/>
</svg>
