<svg width="29" height="29" viewBox="0 0 29 29" fill="none" xmlns="http://www.w3.org/2000/svg">
<g clip-path="url(#clip0_266_440)">
<path d="M17.771 6.8103L24.6065 13.6458C24.833 13.8724 24.9603 14.1797 24.9603 14.5001C24.9603 14.8205 24.833 15.1278 24.6065 15.3544L17.771 22.19C17.5431 22.4101 17.2378 22.5319 16.921 22.5291C16.6042 22.5264 16.3011 22.3993 16.0771 22.1752C15.8531 21.9512 15.726 21.6481 15.7232 21.3313C15.7205 21.0145 15.8423 20.7093 16.0624 20.4814L20.8353 15.7085H4.83333C4.51286 15.7085 4.20552 15.5812 3.97891 15.3546C3.75231 15.1279 3.625 14.8206 3.625 14.5001C3.625 14.1797 3.75231 13.8723 3.97891 13.6457C4.20552 13.4191 4.51286 13.2918 4.83333 13.2918H20.8353L16.0624 8.51888C15.947 8.40741 15.8549 8.27408 15.7916 8.12666C15.7283 7.97924 15.6949 7.82068 15.6935 7.66024C15.6921 7.4998 15.7227 7.34068 15.7835 7.19219C15.8442 7.04369 15.9339 6.90877 16.0474 6.79532C16.1608 6.68187 16.2958 6.59214 16.4443 6.53139C16.5928 6.47063 16.7519 6.44006 16.9123 6.44145C17.0728 6.44285 17.2313 6.47618 17.3787 6.53951C17.5262 6.60283 17.6595 6.69489 17.771 6.8103Z" fill="black"/>
</g>
<defs>
<clipPath id="clip0_266_440">
<rect width="29" height="29" fill="white"/>
</clipPath>
</defs>
</svg>
