<svg width="72" height="72" viewBox="0 0 72 72" fill="none" xmlns="http://www.w3.org/2000/svg">
<path d="M0 0V72H57.7197C57.7682 67.6011 58.2372 19.5768 57.4124 17.5067C56.5876 15.4528 51.0243 8.10243 41.9111 8.49865C34.5283 8.71698 29.7089 17.0135 29.2722 18.2102C29.0377 18.8571 29.1186 24.2992 29.1429 25.9084L33.3881 25.9326L33.4124 29.2318C45.8005 32.7412 44.3935 42.3154 44.3935 42.3154H11.3288C11.8464 30.0647 23.4178 29.1914 23.4178 29.1914L23.4016 25.8841L26.9515 25.9003C26.8544 24.372 26.5633 19.2453 26.8949 17.9757C27.4205 15.9542 33 6.37197 42.6631 6.38005C52.69 6.38814 59.1995 15.0081 59.8302 16.9892C60.3234 18.5175 59.9838 67.6739 59.9596 71.9919H72V0H0ZM37.0997 45.283C37.6981 45.283 38.7089 47.248 38.7089 48.2911C38.7089 49.3342 37.9973 50.1833 37.1159 50.1833C36.2345 50.1833 35.5229 49.3342 35.5229 48.2911C35.5229 47.248 36.4528 45.283 37.0997 45.283ZM33.0647 50.0296C33.6631 50.0296 34.6739 51.9946 34.6739 53.0377C34.6739 54.0809 33.9623 54.9299 33.0809 54.9299C32.1995 54.9299 31.4879 54.0809 31.4879 53.0377C31.4879 51.9946 32.4178 50.0296 33.0647 50.0296ZM27.5741 45.4367C28.1725 45.4367 29.1833 47.4016 29.1833 48.4447C29.1833 49.4879 28.4717 50.3369 27.5903 50.3369C26.7089 50.3369 25.9973 49.4879 25.9973 48.4447C25.9973 47.4016 26.9272 45.4367 27.5741 45.4367ZM22.3423 50.5391C22.9407 50.5391 23.9515 52.504 23.9515 53.5472C23.9515 54.5903 23.2399 55.4394 22.3585 55.4394C21.4771 55.4394 20.7655 54.5903 20.7655 53.5472C20.7655 52.504 21.6954 50.5391 22.3423 50.5391ZM18.8976 45.4367C19.496 45.4367 20.5067 47.4016 20.5067 48.4447C20.5067 49.4879 19.7951 50.3369 18.9137 50.3369C18.0323 50.3369 17.3208 49.4879 17.3208 48.4447C17.3208 47.4016 18.2507 45.4367 18.8976 45.4367Z" fill="#364F4C"/>
</svg>
