<svg width="72" height="72" viewBox="0 0 72 72" fill="none" xmlns="http://www.w3.org/2000/svg">
<g clip-path="url(#clip0_426_2810)">
<path d="M48.9461 56.7812H22.2291L17.5957 66.7678C18.0889 67.3257 18.4043 68.0535 18.4043 68.8621C18.4043 70.5198 17.1267 71.8621 15.5013 71.9996H55.9326L48.9542 56.7812H48.9461Z" fill="#364F4C"/>
<path d="M0 0V72H14.9677C13.3423 71.8625 12.0647 70.5202 12.0647 68.8625C12.0647 67.1159 13.4798 65.6927 15.2345 65.6927C15.5094 65.6927 15.7763 65.7412 16.035 65.8059L26.3854 43.5121C20.3208 41.0377 15.8733 36.1698 14.7574 30.3639H56.2076C55.0997 36.097 50.7574 40.9003 44.8221 43.407L57.9057 71.9353C57.9057 71.9353 57.9137 71.9838 57.9137 72.0081H72V0H0ZM30.7439 25.3666C30.186 26.1348 29.3935 24.7763 29.9515 24C30.5094 23.2318 31.2453 22.0916 30.8329 20.7574C30.5256 19.7628 29.9434 19.0916 29.6119 18.1132C28.9488 16.1644 29.0297 13.6173 29.7817 11.7817C30.1941 10.7709 31.1644 11.7412 30.752 12.752C30.3315 13.779 30.1698 15 30.3639 16.221C30.5499 17.4259 31.1078 18.1698 31.5364 19.1159C32.5633 21.372 31.9164 23.7493 30.752 25.3666H30.7439ZM35.2803 23.2156C34.7224 23.9838 33.9299 22.6253 34.4879 21.8491C35.0458 21.0809 35.7817 19.9407 35.3693 18.6065C35.062 17.6119 34.4798 16.9407 34.1482 15.9623C33.4852 14.0135 33.566 11.4663 34.3181 9.63073C34.7305 8.61995 35.7008 9.5903 35.2884 10.6011C34.8679 11.628 34.7062 12.8491 34.9003 14.0701C35.0863 15.2749 35.6442 16.0189 36.0728 16.965C37.0997 19.221 36.4528 21.5984 35.2884 23.2156H35.2803ZM40.1563 25.4232C39.5984 26.1914 38.8059 24.8329 39.3639 24.0566C39.9218 23.2884 40.6577 22.1482 40.2453 20.814C39.938 19.8194 39.3558 19.1482 39.0243 18.1698C38.3612 16.221 38.4421 13.6739 39.1941 11.8383C39.6065 10.8275 40.5768 11.7978 40.1644 12.8086C39.7439 13.8356 39.5822 15.0566 39.7763 16.2776C39.9623 17.4825 40.5202 18.2264 40.9488 19.1725C41.9757 21.4286 41.3288 23.8059 40.1644 25.4232H40.1563Z" fill="#364F4C"/>
<path d="M48.5417 55.8923L43.1078 44.0459C40.7385 44.8303 38.1671 45.2669 35.4744 45.2669C32.7816 45.2669 30.3962 44.8707 28.0997 44.1348L22.6415 55.8923H48.5417Z" fill="#364F4C"/>
</g>
<defs>
<clipPath id="clip0_426_2810">
<rect width="72" height="72" fill="white"/>
</clipPath>
</defs>
</svg>
