<svg width="72" height="72" viewBox="0 0 72 72" fill="none" xmlns="http://www.w3.org/2000/svg">
<g clip-path="url(#clip0_426_2808)">
<path d="M0 0V72H72V0H0ZM62.1995 33.1698L57.0889 33.186C56.7817 33.186 56.5391 33.4367 56.5391 33.7359V60.3801C56.5391 60.6873 56.2884 60.9299 55.9892 60.9299H16.2049C15.8976 60.9299 15.655 60.6792 15.655 60.3801V33.8733C15.655 33.566 15.4043 33.3154 15.097 33.3234L9.80863 33.3396C9.28302 33.3396 9.04852 32.6846 9.46092 32.3531L35.5633 11.1914C35.7655 11.0296 36.0566 11.0296 36.2588 11.1914L45.3477 18.4447V13.5283C45.3477 13.1482 45.655 12.8491 46.027 12.8491H51.5418C51.9218 12.8491 52.221 13.1563 52.221 13.5283V23.9353L62.531 32.1752C62.9434 32.4987 62.7089 33.1617 62.1833 33.1617L62.1995 33.1698Z" fill="#364F4C"/>
<path d="M44.717 44.7335L41.8787 48.4937L43.1078 48.5583C43.1078 48.5583 42.4367 49.4155 41.3774 50.2241C40.3181 51.0327 38.7898 51.4128 38.0539 51.1459C37.3181 50.8791 37.5202 48.8414 37.5202 48.8414C37.5202 48.8414 37.2615 40.0273 37.213 39.5422C37.1644 39.057 37.7305 38.7982 38.0054 38.7497C38.2237 38.7174 38.7736 38.8225 39.372 38.7578C39.8976 38.7012 39.744 39.4209 39.744 39.4209C39.744 39.4209 40.8113 39.4856 41.1267 39.437C41.4421 39.3885 41.4987 38.9519 41.4987 38.9519C41.4987 38.9519 41.5472 37.7794 41.5472 37.3912C41.5472 37.0031 41.2076 36.7848 41.2076 36.7848L39.8491 36.8009V37.0839C39.8491 37.367 39.5337 37.4236 39.5337 37.4236C39.5337 37.4236 38.1591 37.4236 37.8194 37.4074C37.4798 37.3912 37.1644 36.906 37.1644 36.906L37.1159 36.0893C37.9084 35.7982 38.4744 35.0462 38.4744 34.1567C38.4744 33.0166 37.5526 32.0947 36.4124 32.0947C35.2723 32.0947 34.3585 33.0166 34.3585 34.1567C34.3585 35.0058 34.8679 35.7255 35.5957 36.0408C35.5957 36.2591 35.6119 36.6311 35.5876 36.8737C35.5553 37.2295 35.0297 37.3427 34.9488 37.4074C34.868 37.4721 33.3396 37.4236 33.0971 37.3751C32.8626 37.3265 32.8949 36.7686 32.8949 36.7686C32.8949 36.7686 31.8033 36.7848 31.5688 36.7848C31.3343 36.7848 31.1321 36.9869 31.1159 38.1432C31.0998 39.2996 31.4879 39.3319 31.4879 39.3319L32.9192 39.3481C32.9353 38.9761 33 38.774 33.1132 38.7416C33.186 38.7174 34.0189 38.6446 34.7224 38.7335C35.4259 38.8225 35.6038 39.3481 35.6038 39.3481C35.6038 39.3481 35.2723 48.3562 35.2723 48.9141C35.2723 49.4721 35.3531 51.34 33.9785 51.2753C31.6415 51.1702 29.5715 48.5664 29.5715 48.5664L30.9623 48.5179L27.8248 44.6122L27.4933 49.6176L28.496 48.9222C28.5768 50.0058 29.6604 51.154 30.7197 52.1001C31.779 53.0462 34.1483 53.8468 34.7628 54.0732C35.3774 54.2996 36.3477 55.4397 36.3477 55.4397C36.3477 55.4397 36.7844 54.34 40.31 53.4667C41.8545 53.0866 44.3693 48.8414 44.3693 48.8414L45.2426 49.4963L44.7413 44.7255L44.717 44.7335ZM35.1267 34.1486C35.1267 33.437 35.7008 32.871 36.4124 32.871C37.124 32.871 37.6981 33.4451 37.6981 34.1486C37.6981 34.8521 37.124 35.4263 36.4124 35.4263C35.7008 35.4263 35.1267 34.8521 35.1267 34.1486Z" fill="#364F4C"/>
<path d="M19.6091 20.8701C22.7397 20.8701 25.2776 18.3323 25.2776 15.2017C25.2776 12.0711 22.7397 9.5332 19.6091 9.5332C16.4785 9.5332 13.9407 12.0711 13.9407 15.2017C13.9407 18.3323 16.4785 20.8701 19.6091 20.8701Z" fill="#FFFDF9"/>
<path d="M19.6092 21.2745C16.2614 21.2745 13.5364 18.5494 13.5364 15.2017C13.5364 11.854 16.2614 9.12891 19.6092 9.12891C22.9569 9.12891 25.6819 11.854 25.6819 15.2017C25.6819 18.5494 22.9569 21.2745 19.6092 21.2745ZM19.6092 9.93753C16.7062 9.93753 14.345 12.2987 14.345 15.2017C14.345 18.1046 16.7062 20.4658 19.6092 20.4658C22.5121 20.4658 24.8733 18.1046 24.8733 15.2017C24.8733 12.2987 22.5121 9.93753 19.6092 9.93753Z" fill="#364F4C"/>
<path d="M30.4609 24.7675C29.8464 23.6678 26.4825 21.4036 18.7682 21.8727C12.9057 22.2284 11.0216 22.657 9.44475 24.9535C8.27224 26.6597 8.8868 43.3174 8.8868 43.3174C8.90297 44.4495 9.81672 45.3632 10.9569 45.3632C12.097 45.3632 13.0108 44.4495 13.027 43.3174H13.0755C13.0755 43.3174 13.0755 27.3794 13.3019 26.878C13.5283 26.3767 13.8922 26.5627 13.8922 26.5627L13.593 62.0856C13.5768 62.1988 13.5607 62.312 13.5607 62.4252C13.5607 63.9939 14.8383 65.2716 16.407 65.2716C17.9757 65.2716 19.2534 63.9939 19.2534 62.4252C19.2534 62.3605 19.2372 62.2958 19.2372 62.2231L19.2938 43.4063C19.8437 42.7352 20.5472 43.4063 20.5472 43.4063L20.3208 62.4737H20.345C20.3935 63.9535 21.5984 65.1422 23.0943 65.1422C24.5903 65.1422 25.8518 63.905 25.8518 62.3848C25.8518 62.3848 25.3666 27.25 25.8679 26.8457C26.3693 26.4333 26.628 27.0964 26.628 27.0964L27.0809 43.4468C27.0809 43.4468 27.0809 43.4953 27.0809 43.5196C27.0809 44.6112 27.9704 45.5007 29.062 45.5007C30.1536 45.5007 31.0431 44.6112 31.0431 43.5196C31.0431 43.5196 31.5526 26.6597 30.4852 24.7675H30.4609Z" fill="#FFFDF9"/>
<path d="M16.407 65.6762C14.6118 65.6762 13.1563 64.2207 13.1563 62.4255C13.1563 62.3204 13.1725 62.2153 13.1805 62.1183V62.0374L13.3423 43.9565C13.0512 45.0078 12.0889 45.776 10.9568 45.776C9.74388 45.776 8.72501 44.8865 8.52286 43.7301H8.4986L8.48242 43.342C8.41773 41.6277 7.89213 26.5064 9.11315 24.7355C10.7789 22.3096 12.7681 21.8406 18.752 21.4768C26.07 21.032 29.9838 23.0859 30.8167 24.5819C31.9083 26.5226 31.4797 41.8137 31.4231 43.5522C31.4231 44.8541 30.3557 45.9215 29.0377 45.9215C27.7196 45.9215 26.6522 44.8541 26.6522 43.5361V43.439L26.2156 27.2099C26.2156 27.2018 26.1994 27.1857 26.1994 27.1776C25.9083 29.3528 26.07 49.1884 26.256 62.4013C26.256 64.1479 24.8409 65.563 23.0943 65.563C21.5175 65.563 20.2156 64.4229 19.9811 62.8946H19.9406L19.9245 62.4822L20.1509 43.6169C20.07 43.5684 19.9649 43.5118 19.8517 43.5199C19.8194 43.5199 19.7708 43.528 19.7061 43.5765L19.6495 62.2234C19.6657 62.3043 19.6738 62.3609 19.6738 62.4255C19.6738 64.2207 18.2183 65.6762 16.4231 65.6762H16.407ZM13.7385 26.1264C13.9164 26.1264 14.0458 26.183 14.0781 26.1991L14.3045 26.3123L13.9892 62.2234C13.9811 62.2881 13.973 62.3528 13.973 62.4255C13.973 63.776 15.0646 64.8676 16.415 64.8676C17.7654 64.8676 18.8571 63.776 18.8571 62.4255L18.8409 62.2557L18.9056 43.2611L18.9946 43.1479C19.2776 42.8083 19.5929 42.7194 19.8113 42.7113C20.3773 42.6708 20.7897 43.0751 20.8382 43.1237L20.9676 43.245L20.7412 62.2477L20.7574 62.4741C20.7978 63.7517 21.8247 64.7544 23.1024 64.7544C24.38 64.7544 25.4555 63.7032 25.4555 62.4013C24.9703 27.0805 25.4231 26.7086 25.6172 26.5468C25.9245 26.2962 26.1994 26.2962 26.3773 26.3447C26.7897 26.4579 26.9757 26.8784 27.008 26.9592L27.0323 27.0967L27.4851 43.4875V43.5603C27.477 44.4094 28.1805 45.121 29.0539 45.121C29.9272 45.121 30.6307 44.4175 30.6307 43.5441C30.8328 36.8002 30.8652 26.3043 30.1212 24.9862C29.6441 24.1371 26.5552 21.8245 18.8086 22.2935C13.0512 22.6412 11.2722 23.0455 9.7924 25.2045C9.00803 26.3447 9.06463 36.5172 9.29105 42.9377H9.29914V43.3339C9.31531 44.2396 10.0673 44.9835 10.973 44.9835C11.8787 44.9835 12.6307 44.2396 12.6388 43.3339V42.9377H12.6873C12.6873 36.9134 12.7277 27.2261 12.9541 26.7328C13.1078 26.3851 13.3342 26.2477 13.4959 26.191C13.5929 26.1587 13.6738 26.1425 13.7547 26.1425L13.7385 26.1264Z" fill="#364F4C"/>
</g>
<defs>
<clipPath id="clip0_426_2808">
<rect width="72" height="72" fill="white"/>
</clipPath>
</defs>
</svg>
