<svg width="72" height="72" viewBox="0 0 72 72" fill="none" xmlns="http://www.w3.org/2000/svg">
<g clip-path="url(#clip0_426_2806)">
<path d="M46.7305 43.7227H36.7278V52.4962H46.7305V43.7227Z" fill="#364F4C"/>
<path d="M35.2722 33.4854H25.2695V42.2589H35.2722V33.4854Z" fill="#364F4C"/>
<path d="M35.2722 43.7227H25.2695V52.4962H35.2722V43.7227Z" fill="#364F4C"/>
<path d="M46.7305 33.4854H36.7278V42.2589H46.7305V33.4854Z" fill="#364F4C"/>
<path d="M0 0V72H72V0H0ZM62.1995 33.1698L57.0889 33.186C56.7817 33.186 56.5391 33.4367 56.5391 33.7359V60.3801C56.5391 60.6873 56.2884 60.9299 55.9811 60.9299H16.2049C15.8976 60.9299 15.655 60.6792 15.655 60.3801V33.8733C15.655 33.566 15.4043 33.3154 15.097 33.3234L9.80863 33.3396C9.28302 33.3396 9.04852 32.6846 9.46092 32.3531L35.5633 11.1914C35.7655 11.0296 36.0566 11.0296 36.2588 11.1914L45.3477 18.4447V13.5283C45.3477 13.1482 45.655 12.8491 46.027 12.8491H51.5418C51.9218 12.8491 52.221 13.1563 52.221 13.5283V23.9353L62.531 32.1752C62.9434 32.4987 62.7089 33.1617 62.1914 33.1617L62.1995 33.1698Z" fill="#364F4C"/>
</g>
<defs>
<clipPath id="clip0_426_2806">
<rect width="72" height="72" fill="white"/>
</clipPath>
</defs>
</svg>
