<svg width="72" height="72" viewBox="0 0 72 72" fill="none" xmlns="http://www.w3.org/2000/svg">
<g clip-path="url(#clip0_426_2813)">
<path d="M0 0V72H11.5876V67.8113H18.9137V21.3396H5.34501V17.7493H18.9137V7.60916H26.5553V17.7493H58.9973V21.3396H52.965L52.9326 23.9757L55.7871 30.3639L52.9973 30.3154L52.9569 33.3396C55.407 34.6496 55.1563 36.0243 54.8895 37.0916C54.6226 38.159 52.8356 39.5903 50.8706 38.7898C48.9057 37.9892 49.4394 35.9353 49.4394 35.9353L50.4744 35.903C50.3854 37.9488 53.1348 38.4259 53.6927 36.8571C54.5256 34.5202 51.7358 34.4151 51.7358 34.4151L51.7601 30.3154H48.6388L51.6712 24.1536V21.3396H26.5391V67.8113H34.6496V72H71.9838V0H0Z" fill="#364F4C"/>
</g>
<defs>
<clipPath id="clip0_426_2813">
<rect width="72" height="72" fill="white"/>
</clipPath>
</defs>
</svg>
