<svg width="72" height="72" viewBox="0 0 72 72" fill="none" xmlns="http://www.w3.org/2000/svg">
<g clip-path="url(#clip0_426_2804)">
<path d="M20.434 9.17773H18.6712C13.8841 9.17773 9.96228 13.0915 9.96228 17.8866V19.6494C12.5741 15.388 16.1644 11.7977 20.4259 9.18582L20.434 9.17773Z" fill="#364F4C"/>
<path d="M9.97034 52.5605V54.3234C9.97034 59.1104 13.8841 63.0322 18.6792 63.0322H20.442C16.1806 60.4204 12.5903 56.8301 9.97842 52.5686L9.97034 52.5605Z" fill="#364F4C"/>
<path d="M18.3315 39.5901L6.36389 40.3502C6.36389 40.3502 8.53909 53.6683 19.2938 60.5982L24.8733 50.4419C24.8733 50.4419 19.6577 46.892 18.3315 39.582V39.5901Z" fill="#364F4C"/>
<path d="M63.8086 19.6416V17.8788C63.8086 13.0918 59.8949 9.16992 55.0997 9.16992H53.3369C57.5984 11.7818 61.1887 15.3721 63.8005 19.6335L63.8086 19.6416Z" fill="#364F4C"/>
<path d="M12.6792 17.9514L22.5525 24.008C22.5525 24.008 26.345 18.9703 33.7115 17.9919L31.8921 6.34766C31.8921 6.34766 20.1186 7.53634 12.6792 17.9433V17.9514Z" fill="#364F4C"/>
<path d="M53.345 63.0244H55.1078C59.8948 63.0244 63.8167 59.1107 63.8167 54.3155V52.5527C61.2048 56.8142 57.6145 60.4045 53.3531 63.0163L53.345 63.0244Z" fill="#364F4C"/>
<path d="M54.6389 11.6357L47.5553 21.2665C47.5553 21.2665 52.9893 24.4767 54.7763 31.6896L66.6712 30.1613C66.6712 30.1613 64.5769 17.8379 54.6308 11.6357H54.6389Z" fill="#364F4C"/>
<path d="M39.6607 53.1491C49.0811 51.62 55.4782 42.7436 53.9491 33.3233C52.4199 23.9029 43.5436 17.5058 34.1232 19.035C24.7029 20.5641 18.3058 29.4404 19.8349 38.8608C21.3641 48.2811 30.2404 54.6782 39.6607 53.1491Z" fill="#364F4C"/>
<path d="M0 0V72H72V0H0ZM65.2722 49.8841V54.7763C65.2722 60.1132 60.9057 64.4798 55.5687 64.4798H50.6765C46.5121 66.5094 41.8302 67.6496 36.8895 67.6496C31.9488 67.6496 27.2668 66.5094 23.1024 64.4798H18.2102C12.8733 64.4798 8.50674 60.1132 8.50674 54.7763V49.8841C6.47709 45.7197 5.33693 41.0458 5.33693 36.097C5.33693 31.1482 6.47709 26.4744 8.50674 22.31V17.4178C8.50674 12.0809 12.8733 7.71429 18.2102 7.71429H23.1024C27.2668 5.68464 31.9488 4.54447 36.8895 4.54447C41.8302 4.54447 46.5121 5.68464 50.6765 7.71429H55.5687C60.9057 7.71429 65.2722 12.0809 65.2722 17.4178V22.31C67.3019 26.4744 68.442 31.1482 68.442 36.097C68.442 41.0458 67.3019 45.7197 65.2722 49.8841Z" fill="#364F4C"/>
<path d="M62.6442 51.5818L52.0998 46.7705C52.0998 46.7705 48.9461 52.2368 41.7574 54.0967L43.407 65.9754C43.407 65.9754 56.531 62.8136 62.6442 51.5737V51.5818Z" fill="#364F4C"/>
</g>
<defs>
<clipPath id="clip0_426_2804">
<rect width="72" height="72" fill="white"/>
</clipPath>
</defs>
</svg>
