<svg width="72" height="72" viewBox="0 0 72 72" fill="none" xmlns="http://www.w3.org/2000/svg">
<g clip-path="url(#clip0_426_2809)">
<path d="M0 0V72H72V0H0ZM62.1995 33.1698L57.0889 33.186C56.7817 33.186 56.5391 33.4367 56.5391 33.7359V60.3801C56.5391 60.6873 56.2884 60.9299 55.9892 60.9299H16.2049C15.8976 60.9299 15.655 60.6792 15.655 60.3801V33.8733C15.655 33.566 15.4043 33.3154 15.097 33.3234L9.80863 33.3396C9.28302 33.3396 9.04852 32.6846 9.46092 32.3531L35.5633 11.1914C35.7655 11.0296 36.0566 11.0296 36.2588 11.1914L45.3477 18.4447V13.5283C45.3477 13.1482 45.655 12.8491 46.027 12.8491H51.5418C51.9218 12.8491 52.221 13.1563 52.221 13.5283V23.9353L62.531 32.1752C62.9434 32.4987 62.7089 33.1617 62.1833 33.1617L62.1995 33.1698Z" fill="#364F4C"/>
<path d="M44.3692 45.9699L41.531 49.73L42.7601 49.7947C42.7601 49.7947 42.0889 50.6518 41.0296 51.4604C39.9703 52.2691 38.442 52.6491 37.7062 52.3823C36.9703 52.1154 37.1725 50.0777 37.1725 50.0777C37.1725 50.0777 36.9137 41.2637 36.8652 40.7785C36.8167 40.2933 37.3827 40.0346 37.6576 39.986C37.876 39.9537 38.4258 40.0588 39.0242 39.9941C39.5498 39.9375 39.3962 40.6572 39.3962 40.6572C39.3962 40.6572 40.4636 40.7219 40.7789 40.6734C41.0943 40.6249 41.1509 40.1882 41.1509 40.1882C41.1509 40.1882 41.1994 39.0157 41.1994 38.6276C41.1994 38.2394 40.8598 38.0211 40.8598 38.0211L39.5013 38.0373V38.3203C39.5013 38.6033 39.1859 38.6599 39.1859 38.6599C39.1859 38.6599 37.8113 38.6599 37.4717 38.6437C37.132 38.6276 36.8167 38.1424 36.8167 38.1424L36.7682 37.3257C37.5606 37.0346 38.1266 36.2825 38.1266 35.393C38.1266 34.2529 37.2048 33.3311 36.0646 33.3311C34.9245 33.3311 34.0107 34.2529 34.0107 35.393C34.0107 36.2421 34.5202 36.9618 35.2479 37.2771C35.2479 37.4955 35.2641 37.8674 35.2398 38.11C35.2075 38.4658 34.6819 38.579 34.601 38.6437C34.5202 38.7084 32.9919 38.6599 32.7493 38.6114C32.5148 38.5629 32.5471 38.0049 32.5471 38.0049C32.5471 38.0049 31.4555 38.0211 31.221 38.0211C30.9865 38.0211 30.7843 38.2232 30.7681 39.3796C30.752 40.5359 31.1401 40.5682 31.1401 40.5682L32.5714 40.5844C32.5876 40.2125 32.6522 40.0103 32.7655 39.978C32.8382 39.9537 33.6711 39.8809 34.3746 39.9699C35.0781 40.0588 35.256 40.5844 35.256 40.5844C35.256 40.5844 34.9245 49.5925 34.9245 50.1505C34.9245 50.7084 35.0053 52.5763 33.6307 52.5116C31.2938 52.4065 29.2237 49.8028 29.2237 49.8028L30.6145 49.7542L27.477 45.8486L27.1455 50.854L28.1482 50.1585C28.2291 51.2421 29.3126 52.3904 30.3719 53.3364C31.4312 54.2825 33.8005 55.0831 34.4151 55.3095C35.0296 55.5359 36 56.6761 36 56.6761C36 56.6761 36.4366 55.5763 39.9622 54.703C41.5067 54.323 44.0215 50.0777 44.0215 50.0777L44.8948 50.7327L44.3935 45.9618L44.3692 45.9699ZM34.7789 35.393C34.7789 34.6815 35.3531 34.1154 36.0646 34.1154C36.7762 34.1154 37.3504 34.6895 37.3504 35.393C37.3504 36.0966 36.7762 36.6707 36.0646 36.6707C35.3531 36.6707 34.7789 36.0966 34.7789 35.393Z" fill="#364F4C"/>
</g>
<defs>
<clipPath id="clip0_426_2809">
<rect width="72" height="72" fill="white"/>
</clipPath>
</defs>
</svg>
