<svg width="72" height="72" viewBox="0 0 72 72" fill="none" xmlns="http://www.w3.org/2000/svg">
<g clip-path="url(#clip0_426_2812)">
<path d="M54.6308 50.4095C47.7413 50.6278 34.6092 50.7086 27.2507 50.5469V51.9539H54.6308V50.4014V50.4095Z" fill="#364F4C"/>
<path d="M54.6792 60.5254C53.2075 60.5254 52.0107 61.7222 52.0107 63.1939C52.0107 64.6656 53.2075 65.8623 54.6792 65.8623C56.1509 65.8623 57.3477 64.6656 57.3477 63.1939C57.3477 61.7222 56.1509 60.5254 54.6792 60.5254Z" fill="#364F4C"/>
<path d="M0 0V72H72V0H0ZM67.2372 51.9542V59.717H58.1887C59.0782 60.6065 59.6199 61.8356 59.6199 63.1941C59.6199 65.9272 57.4043 68.1348 54.6792 68.1348C51.9542 68.1348 49.7385 65.9191 49.7385 63.1941C49.7385 61.8356 50.2884 60.6065 51.1779 59.717H17.8706V58.027H5.07008V56.0377H8.68464V54.9542H17.8706V51.9542H26.0701V50.5148C23.7898 50.4501 22.2534 50.3531 21.9623 50.2318C20.4906 49.5687 12.8895 40.9326 12.8895 40.9326L32.6119 41.345V8.15903H33.3477V10.2695L48.9542 37.0512L33.3477 36.938V41.3612L64.027 42.0081C64.027 42.0081 60.4447 49.6011 59.0701 50.1267C58.8194 50.2237 57.5013 50.3046 55.496 50.3774V51.9542H64.2049V45.6873H67.221V51.9542H67.2372Z" fill="#364F4C"/>
</g>
<defs>
<clipPath id="clip0_426_2812">
<rect width="72" height="72" fill="white"/>
</clipPath>
</defs>
</svg>
