<svg width="72" height="72" viewBox="0 0 72 72" fill="none" xmlns="http://www.w3.org/2000/svg">
<g clip-path="url(#clip0_426_2811)">
<path d="M0 0V72H72V0H0ZM38.814 52.5364V58.0997C38.814 59.6442 37.5445 60.9137 36 60.9137C34.4555 60.9137 33.186 59.6442 33.186 58.0997V52.5364C18.8814 51.4609 7.34232 42.2426 5.05391 30.3962H22.6334C22.5364 27.6712 22.1887 17.1914 22.407 15.4609C22.6577 13.4636 25.2291 11.9757 27.0566 11.531C29.0135 11.062 39.9946 11.0943 39.9946 11.0943C39.9946 11.0943 40.496 14.4582 39.6226 14.5876C38.7493 14.717 32.0135 15.0889 30.1456 15.9623C28.2776 16.8356 29.159 19.1968 29.5714 19.4232C29.9919 19.6496 41.6119 18.9623 42.1941 19.5445C42.6307 19.9811 42.6307 22.5849 42.2426 23.0701C42.1375 23.1995 41.8059 23.2642 41.3127 23.2965V25.1887C41.3127 25.4555 41.0943 25.6658 40.8356 25.6658H37.3423C37.0755 25.6658 36.8652 25.4474 36.8652 25.1887V23.442C36.097 23.4906 35.2642 23.5714 34.3828 23.6927C30.3962 24.2588 29.434 28.7062 29.2075 30.3962H66.938C64.6577 42.2426 53.1186 51.4609 38.8059 52.5364H38.814Z" fill="#364F4C"/>
</g>
<defs>
<clipPath id="clip0_426_2811">
<rect width="72" height="72" fill="white"/>
</clipPath>
</defs>
</svg>
