<svg width="72" height="72" viewBox="0 0 72 72" fill="none" xmlns="http://www.w3.org/2000/svg">
<g clip-path="url(#clip0_426_2807)">
<path d="M62.4501 48.2183V48.6792C62.4501 49.3989 61.8679 49.9892 61.1402 49.9892H58.3019C57.5822 49.9892 56.9919 49.407 56.9919 48.6792V48.2183H49.8356C49.8356 48.2183 46.2534 50.8544 41.7655 50.8544C37.2776 50.8544 33.4933 49.0512 32.7089 48.566C31.2615 47.6846 28.3585 47.8625 27.3154 48.4286C26.6604 48.7844 24.0243 50.3369 24.2588 55.8598H25.9003C27.4447 55.8598 28.7143 57.1294 28.7143 58.6739V59.4259C28.7143 60.9703 27.4447 62.2399 25.9003 62.2399H12.0889C10.5445 62.2399 9.27493 60.9703 9.27493 59.4259V58.6739C9.27493 57.1294 10.5445 55.8598 12.0889 55.8598H14.2318C14.2722 54.9057 14.5876 48.4367 16.5849 45.4447C18.7439 42.2102 22.2938 39.3558 25.9326 38.5714C29.442 37.8113 31.9811 38.2318 32.3774 38.0054C32.7736 37.779 33.6873 36.5256 35.6119 36.2992C35.7817 36.283 36.0081 36.2668 36.283 36.2507C35.7736 36.0647 35.4097 35.5795 35.4097 35.0054V34.6819C35.4097 33.9461 36.0081 33.3477 36.7439 33.3477H37.9488V31.2615H35.8221V26.5148L37.8275 24.1698V21.3639C37.5283 21.0162 37.2857 20.628 37.1078 20.1995C34.3908 21.3881 29.6846 22.2534 26.2318 22.2534C21.0889 22.2534 20.6765 20.3369 20.6765 18.283C20.6765 16.2291 21.0889 14.7978 26.2318 14.7978C29.7251 14.7978 34.5121 15.4609 37.2129 16.5283C37.9407 15.0404 39.4528 14.0216 41.2156 14.0216C42.9784 14.0216 44.5391 15.0728 45.2507 16.5849C47.9515 15.5094 52.7466 14.8464 56.248 14.8464C61.3908 14.8464 61.8032 16.2695 61.8032 18.3315C61.8032 20.3935 61.3908 22.3019 56.248 22.3019C52.7709 22.3019 48.0243 21.4286 45.3154 20.2237C45.1213 20.6765 44.8545 21.0889 44.5229 21.4528V24.097L46.6011 26.5229H46.6092V26.5391V31.2695H44.6927V33.3558H45.9865C46.7224 33.3558 47.3208 33.9542 47.3208 34.69V35.0135C47.3208 35.5957 46.9407 36.0889 46.4151 36.2668C46.6739 36.2668 46.8194 36.2749 46.8194 36.2749C46.8194 36.2749 49.3989 36.7763 49.8437 37.0108H57V36.8976C57 36.1779 57.5822 35.5876 58.31 35.5876H61.1483C61.8679 35.5876 62.4582 36.1698 62.4582 36.8976V37.0108H72.0081V0H0V72H72V48.2183H62.4501Z" fill="#364F4C"/>
</g>
<defs>
<clipPath id="clip0_426_2807">
<rect width="72" height="72" fill="white"/>
</clipPath>
</defs>
</svg>
